<svg width="473" height="60" viewBox="0 0 473 60" fill="none" xmlns="http://www.w3.org/2000/svg">
<path d="M0 58.428C0 58.428 2.13886 58.17 6.41661 57.6539C10.6944 57.1379 16.9171 56.3179 25.0847 55.1939C33.2524 54.0699 85.1906 48.0997 180.899 37.2835C276.608 26.4672 331.855 19.8715 346.64 17.4964C361.426 15.1213 370.63 13.6301 374.253 13.0227C377.875 12.4153 384.771 11.5347 394.941 10.3808C405.111 9.22697 412.932 8.0795 418.407 6.93847C423.881 5.79744 429.562 4.65297 435.449 3.50508C441.337 2.35718 445.918 1.7695 449.192 1.74198C452.466 1.71446 455.417 1.42258 458.045 0.866358C460.674 0.310134 462.838 0.0215282 464.539 0.000504578C466.24 -0.0205191 468.076 0.615434 470.045 1.90842C472.015 3.20141 473 3.85033 473 3.85516C473 3.85999 473 3.86483 473 3.86966C473 3.87449 472.017 4.52345 470.051 5.81652C468.085 7.1096 466.374 7.75038 464.917 7.73894C463.46 7.7275 461.296 8.00749 458.426 8.57885C455.556 9.1502 452.597 9.43176 449.549 9.42357C446.501 9.41538 442.041 9.97446 436.168 11.1007C430.295 12.227 424.564 13.3566 418.977 14.4897C413.39 15.6228 405.54 16.7448 395.425 17.8557C385.311 18.9666 378.439 19.802 374.81 20.3619C371.181 20.9218 361.945 22.3602 347.103 24.6769C332.261 26.9936 276.958 33.4591 181.194 44.0734C85.4304 54.6877 33.4293 59.9966 25.1909 60C16.9525 60.0034 10.6945 59.747 6.41667 59.231C2.13889 58.715 0 58.4521 0 58.4425V58.428Z" fill="hsl(20, 89%, 55%)"/>
</svg>
