<svg width="438" height="43" viewBox="0 0 438 43" fill="none" xmlns="http://www.w3.org/2000/svg">
<path d="M0 35.2749C0 35.2749 5.56778 31.829 16.7033 24.9372C27.8388 18.0453 40.5742 13.7472 54.9094 12.043C69.2446 10.3387 83.9308 9.05899 98.9679 8.2037C114.005 7.3484 130.798 6.70255 149.347 6.26613C167.896 5.82972 187.808 5.24552 209.083 4.51357C230.359 3.78162 250.394 3.27715 269.189 3.0002C287.984 2.72326 305.097 2.28545 320.527 1.68679C335.958 1.08813 350.567 0.597373 364.354 0.214438C378.142 -0.168497 391.497 -0.038562 404.42 0.604269C417.343 1.2471 426.067 2.28219 430.59 3.70962C435.114 5.13705 437.375 5.85246 437.375 5.8558C437.375 5.85913 437.375 5.86247 437.375 5.86581C437.375 5.86914 435.123 6.60236 430.617 8.06557C426.111 9.52878 417.414 10.6809 404.525 11.5218C391.636 12.3627 378.321 12.7552 364.58 12.6994C350.839 12.6435 336.289 12.701 320.93 12.872C305.571 13.0429 288.59 13.8953 269.985 15.4291C251.38 16.9629 231.548 18.9632 210.49 21.43C189.431 23.8967 169.701 26.551 151.298 29.3929C132.896 32.2348 116.415 34.4299 101.856 35.9784C87.2968 37.5268 73.0745 39.2148 59.1892 41.0423C45.3039 42.8699 31.9682 42.3688 19.1823 39.5391C6.39631 36.7095 0.00279457 35.2913 0.00167847 35.2848L0 35.2749Z" fill="hsl(20, 89%, 55%)"/>
</svg>
