<svg width="825" height="139" viewBox="0 0 825 139" fill="none" xmlns="http://www.w3.org/2000/svg">
<path d="M7.66921 117.821C7.66921 117.821 11.3752 116.834 18.7873 114.86C26.1993 112.886 38.6833 110.493 56.2394 107.679C73.7955 104.865 88.1146 102.735 99.1968 101.286C110.279 99.8381 165.91 90.6801 266.09 73.8125C366.27 56.9448 424.809 47.6533 441.707 45.9378C458.604 44.2223 474.553 42.7041 489.552 41.383C504.551 40.062 517.537 38.7094 528.512 37.3252C539.486 35.9411 551.27 34.5235 563.863 33.0727C576.456 31.6219 588.642 30.1557 600.42 28.6742C612.199 27.1927 623.808 25.8896 635.247 24.7648C646.686 23.64 663.172 21.8185 684.702 19.3003C706.233 16.7821 724.864 14.2855 740.593 11.8103C756.323 9.3352 769.664 7.19563 780.616 5.39167C791.569 3.58771 799.952 2.21564 805.767 1.27543C811.581 0.335215 815.034 -0.0453593 816.126 0.133675C817.218 0.312709 818.253 0.661399 819.231 1.17976C820.209 1.69811 821.078 2.35898 821.839 3.16239C822.6 3.9658 823.213 4.86969 823.677 5.87403C824.142 6.87837 824.434 7.93059 824.554 9.03071C824.673 10.1308 824.614 11.2213 824.376 12.302C824.138 13.3827 823.734 14.3972 823.163 15.3453C822.593 16.2935 821.886 17.1257 821.042 17.842C820.199 18.5584 819.263 19.1213 818.235 19.5308C817.207 19.9403 816.141 20.175 815.036 20.2348C813.931 20.2946 812.845 20.1764 811.779 19.8802C810.713 19.5841 809.722 19.1254 808.806 18.5043C807.89 17.8832 807.097 17.1321 806.427 16.2511C805.758 15.37 805.247 14.4051 804.893 13.3564C804.54 12.3076 804.364 11.23 804.364 10.1234C804.364 9.01679 804.541 7.93919 804.894 6.89057C805.248 5.84195 805.759 4.87722 806.429 3.99638C807.099 3.11553 807.892 2.36469 808.808 1.74384C809.724 1.123 810.715 0.664656 811.782 0.368813C812.848 0.0729692 813.934 -0.0448971 815.039 0.0152361C816.144 0.0753693 817.21 0.310348 818.238 0.720162C819.266 1.12998 820.201 1.69318 821.045 2.40977C821.888 3.12635 822.595 3.95881 823.165 4.90714C823.735 5.85548 824.139 6.87002 824.377 7.95081C824.615 9.0316 824.673 10.1221 824.553 11.2221C824.434 12.3222 824.141 13.3744 823.676 14.3786C823.211 15.3828 822.598 16.2865 821.837 17.0896C821.076 17.8928 820.206 18.5534 819.228 19.0715C818.251 19.5896 817.216 19.938 816.124 20.1167C815.031 20.2954 814.486 20.3847 814.487 20.3847C814.488 20.3847 811.871 20.3105 806.635 20.162C801.399 20.0136 793.231 20.2181 782.131 20.7757C771.031 21.3334 757.6 22.3436 741.839 23.8066C726.077 25.2695 707.395 27.0934 685.792 29.2784C664.19 31.4634 647.724 33.1743 636.393 34.411C625.061 35.6478 613.504 37.0953 601.721 38.7536C589.938 40.412 577.797 42.0856 565.297 43.7746C552.798 45.4636 541.013 47.1859 529.941 48.9416C518.87 50.6973 505.904 52.4889 491.044 54.3163C476.184 56.1437 460.474 58.2778 443.913 60.7185C427.352 63.1591 368.982 72.7054 268.803 89.3575C168.623 106.009 113.086 115.574 102.19 118.05C91.2941 120.527 77.3857 123.498 60.4646 126.964C43.5435 130.43 31.3953 133.121 24.02 135.039C16.6446 136.956 12.5434 137.972 11.7164 138.085C10.8893 138.199 10.0606 138.212 9.23037 138.124C8.40013 138.036 7.59244 137.851 6.8073 137.567C6.02217 137.283 5.2824 136.91 4.588 136.446C3.8936 135.983 3.26477 135.443 2.70147 134.827C2.13816 134.21 1.65676 133.536 1.25728 132.803C0.857811 132.07 0.55186 131.299 0.339437 130.492C0.127014 129.685 0.014299 128.864 0.00127193 128.029C-0.0117551 127.194 0.0752847 126.37 0.262411 125.556C0.449537 124.743 0.731314 123.963 1.10772 123.218C1.48412 122.473 1.94422 121.784 2.48803 121.15C3.03183 120.517 3.64354 119.958 4.32314 119.473C5.00274 118.988 5.73047 118.591 6.50637 118.283C7.28226 117.975 7.66954 117.821 7.66921 117.821Z" fill="hsl(20deg 89% 55%)"/>
<defs>
</defs>
</svg>
