<svg width="565" height="62" viewBox="0 0 565 62" fill="none" xmlns="http://www.w3.org/2000/svg">
<path d="M13.0555 33.4453C13.0555 33.4453 16.232 33.9054 22.5852 34.8254C28.9383 35.7455 35.7215 36.3726 42.9347 36.7068C50.148 37.0409 58.5668 37.3893 68.1911 37.7519C77.8154 38.1144 91.1761 38.2662 108.273 38.2073C125.37 38.1483 142.848 37.815 160.708 37.2075C178.568 36.6 197.247 35.6383 216.747 34.3225C236.247 33.0068 258.166 31.4157 282.503 29.5494C306.841 27.6831 329.357 25.8081 350.052 23.9243C370.747 22.0405 390.127 20.259 408.191 18.5797C426.256 16.9004 442.72 15.2637 457.583 13.6695C472.446 12.0753 484.516 10.7305 493.795 9.63525C503.073 8.53995 510.854 7.41724 517.138 6.26708C523.422 5.11693 529.665 3.87839 535.866 2.55148C542.067 1.22457 546.252 0.448867 548.421 0.224358C550.59 -0.000150979 552.304 -0.0561728 553.563 0.0563281C554.822 0.168829 556.031 0.479402 557.188 0.98803C558.345 1.49666 559.391 2.17672 560.325 3.02822C561.259 3.87972 562.033 4.85809 562.646 5.96331C563.26 7.06853 563.68 8.24276 563.909 9.48598C564.137 10.7292 564.161 11.9764 563.98 13.2274C563.8 14.4785 563.424 15.668 562.854 16.7959C562.283 17.9238 561.547 18.9311 560.647 19.8178C559.746 20.7044 558.727 21.4241 557.59 21.9767C556.453 22.5293 555.258 22.8859 554.004 23.0466C552.75 23.2073 551.504 23.1635 550.264 22.9154C549.025 22.6673 547.857 22.2279 546.762 21.597C545.667 20.9661 544.701 20.1769 543.864 19.2293C543.028 18.2817 542.364 17.2253 541.874 16.0602C541.384 14.8951 541.093 13.6822 541 12.4216C540.908 11.1609 541.019 9.91854 541.334 8.69436C541.649 7.47018 542.151 6.3283 542.84 5.26876C543.529 4.20922 544.37 3.28747 545.361 2.5035C546.353 1.71953 547.444 1.11439 548.634 0.688073C549.824 0.261752 551.05 0.0365686 552.314 0.0125354C553.578 -0.0114978 554.813 0.16686 556.018 0.547631C557.223 0.928401 558.336 1.49165 559.357 2.23736C560.377 2.98307 561.252 3.87221 561.981 4.90478C562.71 5.93735 563.256 7.05927 563.617 8.27059C563.978 9.48191 564.136 10.7192 564.092 11.9824C564.047 13.2457 563.802 14.4688 563.357 15.6517C562.911 16.8346 562.289 17.9154 561.489 18.8941C560.689 19.8728 559.754 20.6982 558.683 21.3703C557.612 22.0424 556.463 22.5259 555.233 22.8209C554.004 23.116 553.39 23.2634 553.392 23.2634C553.393 23.2633 552.432 23.3014 550.509 23.3777C548.587 23.454 544.553 23.6614 538.407 23.9998C532.262 24.3383 525.911 24.7764 519.354 25.3141C512.798 25.8518 504.894 26.4967 495.641 27.2488C486.389 28.001 474.296 29.2224 459.363 30.9131C444.43 32.6038 427.934 34.3501 409.874 36.152C391.814 37.9539 372.403 39.8845 351.642 41.9438C330.88 44.0031 308.322 46.0834 283.967 48.1849C259.611 50.2864 237.599 52.1613 217.929 53.8094C198.26 55.4576 179.416 56.81 161.397 57.8665C143.379 58.923 125.666 59.7865 108.258 60.457C90.8503 61.1275 77.1626 61.4402 67.195 61.3952C57.2274 61.3501 48.1999 61.0151 40.1125 60.3902C32.025 59.7652 24.839 58.7844 18.5543 57.4477C12.2697 56.1111 8.69816 55.3111 7.83977 55.0479C6.98138 54.7847 6.16695 54.4226 5.3965 53.9616C4.62605 53.5006 3.92196 52.9541 3.28422 52.3221C2.64649 51.6901 2.09366 50.9909 1.62572 50.2247C1.15777 49.4584 0.788316 48.6473 0.517348 47.7913C0.24638 46.9354 0.0817812 46.0594 0.0235431 45.1634C-0.034695 44.2675 0.0151115 43.3776 0.172988 42.4937C0.330864 41.6099 0.5922 40.7578 0.957015 39.9374C1.32183 39.117 1.77951 38.3522 2.33006 37.643C2.88061 36.9337 3.50804 36.3007 4.21232 35.7438C4.91661 35.1869 5.67731 34.7224 6.4944 34.3503C7.31149 33.9782 8.16125 33.7092 9.04365 33.5434C9.92606 33.3777 10.8155 33.3199 11.7119 33.3702C12.6084 33.4204 13.0558 33.4454 13.0555 33.4453Z" fill="hsl(20deg 89% 55%)"/>
<defs>

</defs>
</svg>
